/* XPM */
static char *rsz_ant[] = {
/* columns rows colors chars-per-pixel */
"34 34 63 1 ",
"  c black",
". c #040404",
"X c #090909",
"o c #0C0C0C",
"O c gray7",
"+ c gray8",
"@ c gray10",
"# c #1E1E1E",
"$ c gray13",
"% c gray14",
"& c gray17",
"* c #2C2C2C",
"= c #323232",
"- c gray21",
"; c gray22",
": c #3E3E3E",
"> c gray25",
", c #444444",
"< c #4B4B4B",
"1 c #515151",
"2 c #565656",
"3 c gray35",
"4 c #5D5D5D",
"5 c #626262",
"6 c #646464",
"7 c #6A6A6A",
"8 c gray43",
"9 c gray45",
"0 c #777777",
"q c #7B7B7B",
"w c gray50",
"e c #818181",
"r c gray52",
"t c #8B8B8B",
"y c #8E8E8E",
"u c #909090",
"i c #959595",
"p c #989898",
"a c #9F9F9F",
"s c gray63",
"d c #A7A7A7",
"f c #AAAAAA",
"g c #AFAFAF",
"h c gray70",
"j c gray71",
"k c gray72",
"l c #BCBCBC",
"z c #C3C3C3",
"x c #C5C5C5",
"c c #CACACA",
"v c gray80",
"b c #D0D0D0",
"n c #D5D5D5",
"m c gray85",
"M c #DDDDDD",
"N c #E1E1E1",
"B c #E7E7E7",
"V c #EAEAEA",
"C c #EEEEEE",
"Z c #F1F1F1",
"A c gray97",
"S c #F9F9F9",
"D c #FDFDFD",
/* pixels */
"            . *9 &0 .             ",
"             #r7 %u1              ",
"          . #kk X :C4             ",
"        .   %vk . :A9    .        ",
"         . . $076793    .         ",
"       -1 .  OqmCCj:    +6        ",
"       >s>  +txavjdz,  Owt        ",
"      . >p- 2Vamcnlhb o8t         ",
"       . 7l <ZncvccVj -m .        ",
"       . 6f 1DmbnnbAc -x          ",
"       . 7k =lDSBCDVq -n          ",
"       . ;p; =asDbie o8r          ",
"        . >f= o6nd& o9i           ",
"         X >f:0ntgl:9p X...       ",
"      .     *bmpMkdZe      .      ",
"      $1<<<1:7CbccBz-1<<<<>       ",
"     o9xkkllkcVNbnVMllllllg-      ",
"   . qd .  . <DCBVDz    . %m      ",
"   . 9a X.. o8hkAmga= X . &c.     ",
"   . 0d .  X0u 2NfX*h&    %m      ",
"    oeq . X0i 2Aelv =j& . @g-     ",
"   Xrw . X0u  *vAVr  &j&   #j=    ",
" . 7r .  9y .  2BfO.. &j#   @j.   ",
"      . 7g .  5negk+   *b         ",
"      . 6f . 5bpnkdl+  =c         ",
"      . 6f  1myncbjsz  *v         ",
"      . 6d  <mpbcbjgl  *c         ",
"      . 7h  <ZxvvvcMl  =b         ",
"      . 2a. <ZcvvvcNl  >h         ",
"         8p <SMcvvvAk *lO         ",
"      . 8i  <SMcvcvAl  *kO        ",
"       8p . >CNvbvbAg . *lO       ",
"    . 5i . . ,VBBBVf     *j       ",
"      .X      <ABZj .    .o       "
};
